<svg width="56" height="27" viewBox="0 0 56 16" fill="none" xmlns="http://www.w3.org/2000/svg">
<path d="M0.796875 15V0.722656H3.82422V12.5H9.61523V15H0.796875ZM25.0645 7.8418C25.0645 10.2051 24.4785 12.0215 23.3066 13.291C22.1348 14.5605 20.4551 15.1953 18.2676 15.1953C16.0801 15.1953 14.4004 14.5605 13.2285 13.291C12.0566 12.0215 11.4707 10.1986 11.4707 7.82227C11.4707 5.44596 12.0566 3.63281 13.2285 2.38281C14.4069 1.1263 16.0931 0.498047 18.2871 0.498047C20.4811 0.498047 22.1576 1.12956 23.3164 2.39258C24.4818 3.6556 25.0645 5.47201 25.0645 7.8418ZM14.6445 7.8418C14.6445 9.43685 14.9473 10.638 15.5527 11.4453C16.1582 12.2526 17.0632 12.6562 18.2676 12.6562C20.6829 12.6562 21.8906 11.0514 21.8906 7.8418C21.8906 4.62565 20.6895 3.01758 18.2871 3.01758C17.0827 3.01758 16.1745 3.42448 15.5625 4.23828C14.9505 5.04557 14.6445 6.24674 14.6445 7.8418ZM33.4434 6.98242H39.1074V14.3848C38.1895 14.6842 37.3236 14.8926 36.5098 15.0098C35.7025 15.1335 34.8757 15.1953 34.0293 15.1953C31.8743 15.1953 30.2272 14.5638 29.0879 13.3008C27.9551 12.0312 27.3887 10.2116 27.3887 7.8418C27.3887 5.53711 28.0462 3.74023 29.3613 2.45117C30.6829 1.16211 32.5124 0.517578 34.8496 0.517578C36.3145 0.517578 37.7272 0.810547 39.0879 1.39648L38.082 3.81836C37.0404 3.29753 35.9564 3.03711 34.8301 3.03711C33.5215 3.03711 32.4733 3.47656 31.6855 4.35547C30.8978 5.23438 30.5039 6.41602 30.5039 7.90039C30.5039 9.44987 30.8197 10.6348 31.4512 11.4551C32.0892 12.2689 33.0137 12.6758 34.2246 12.6758C34.8561 12.6758 35.4974 12.6107 36.1484 12.4805V9.50195H33.4434V6.98242ZM55.4746 7.8418C55.4746 10.2051 54.8887 12.0215 53.7168 13.291C52.5449 14.5605 50.8652 15.1953 48.6777 15.1953C46.4902 15.1953 44.8105 14.5605 43.6387 13.291C42.4668 12.0215 41.8809 10.1986 41.8809 7.82227C41.8809 5.44596 42.4668 3.63281 43.6387 2.38281C44.8171 1.1263 46.5033 0.498047 48.6973 0.498047C50.8913 0.498047 52.5677 1.12956 53.7266 2.39258C54.8919 3.6556 55.4746 5.47201 55.4746 7.8418ZM45.0547 7.8418C45.0547 9.43685 45.3574 10.638 45.9629 11.4453C46.5684 12.2526 47.4733 12.6562 48.6777 12.6562C51.0931 12.6562 52.3008 11.0514 52.3008 7.8418C52.3008 4.62565 51.0996 3.01758 48.6973 3.01758C47.4928 3.01758 46.5846 3.42448 45.9727 4.23828C45.3607 5.04557 45.0547 6.24674 45.0547 7.8418Z" fill="#006FAE"/>
</svg>
