<svg width="17" height="14" viewBox="0 0 17 14" fill="none" xmlns="http://www.w3.org/2000/svg">
<path d="M16.253 1.05388C15.9176 0.767386 15.4821 0.625804 15.0423 0.660252C14.6025 0.694701 14.1944 0.902362 13.9076 1.23759L6.745 9.61438L2.89168 6.39762C2.73914 6.2664 2.56203 6.16681 2.37066 6.10464C2.17928 6.04247 1.97746 6.01896 1.77692 6.03548C1.57638 6.052 1.38112 6.10821 1.2025 6.20086C1.02387 6.2935 0.865447 6.42073 0.736427 6.57514C0.607407 6.72955 0.510367 6.90807 0.450947 7.10032C0.391528 7.29256 0.370915 7.4947 0.390307 7.69498C0.409698 7.89527 0.468707 8.0897 0.563904 8.26697C0.6591 8.44425 0.788585 8.60084 0.944832 8.72763L6.10737 13.0381C6.26655 13.1708 6.45137 13.2693 6.65029 13.3275C6.84922 13.3857 7.058 13.4022 7.26361 13.3762C7.48167 13.3593 7.69427 13.2997 7.88924 13.2006C8.08421 13.1014 8.25772 12.9649 8.39984 12.7986L16.4357 3.39854C16.7218 3.06293 16.8632 2.62749 16.8287 2.18778C16.7942 1.74808 16.5866 1.34002 16.2516 1.05316" fill="#F4F4F4"/>
</svg>
